# File produced by Open Asset Import Library (http://www.assimp.sf.net)
# (assimp v3.1.151580502)

mtllib p2window.mtl

# 32 vertex positions
v  -0.05 2.0082 1.5
v  -0.05 0.22657 1.5
v  0.05 0.22657 1.5
v  0.05 2.0082 1.5
v  -0.05 2.11516 1.38664
v  -0.05 2.11516 1.5
v  0.05 2.11516 1.5
v  0.05 2.11516 1.38664
v  -0.05 0.22657 -1.5
v  -0.05 2.0082 -1.5
v  0.05 2.0082 -1.5
v  0.05 0.22657 -1.5
v  -0.05 0.115157 1.5
v  -0.05 0.115157 1.38664
v  0.05 0.115157 1.38664
v  0.05 0.115157 1.5
v  0.05 0.22657 1.38664
v  0.05 2.0082 1.38664
v  -0.0500367 2.0082 1.38664
v  -0.052308 0.22657 1.38664
v  -0.05 2.11516 -1.38083
v  0.05 2.11516 -1.38083
v  -0.05 0.115157 -1.38083
v  0.05 0.115157 -1.38083
v  -0.0499325 2.0082 -1.38083
v  -0.05 2.11516 -1.5
v  0.05 2.11516 -1.5
v  0.05 2.0082 -1.38083
v  -0.0512122 0.22657 -1.38083
v  -0.05 0.115157 -1.5
v  0.05 0.115157 -1.5
v  0.05 0.22657 -1.38083

# 80 UV coordinates
vt 0.523198 0.924492 0
vt 0.523198 0.695834 0
vt 0.534325 0.695834 0
vt 0.534325 0.924492 0
vt 0.296488 0.962898 0
vt 0.296488 0.962399 0
vt 0.549485 0.962399 0
vt 0.549485 0.962898 0
vt 0.319007 0.695726 0
vt 0.319007 0.92297 0
vt 0.308697 0.92297 0
vt 0.308697 0.695726 0
vt 0.549425 0.640111 0
vt 0.549425 0.64056 0
vt 0.294458 0.64056 0
vt 0.294458 0.640111 0
vt 0.0264915 0.979897 0
vt 0.0264915 0.753628 0
vt 0.036089 0.753628 0
vt 0.036089 0.979897 0
vt 0.269296 0.715746 0
vt 0.269296 0.489478 0
vt 0.278894 0.489478 0
vt 0.278894 0.715746 0
vt 0.296488 0.975104 0
vt 0.549485 0.975104 0
vt 0.549425 0.651528 0
vt 0.294458 0.651528 0
vt 0.523198 0.938218 0
vt 0.534325 0.938218 0
vt 0.269296 0.729329 0
vt 0.278894 0.729329 0
vt 0.0349822 0.729329 0
vt 0.0349822 0.715746 0
vt 0.319007 0.936611 0
vt 0.308697 0.936611 0
vt 0.270403 0.99348 0
vt 0.036089 0.99348 0
vt 0.270403 0.979897 0
vt 0.0264915 0.99348 0
vt 0.296488 0.975629 0
vt 0.549485 0.975629 0
vt 0.0248922 0.729329 0
vt 0.0248922 0.715746 0
vt 0.0248922 0.489478 0
vt 0.0349822 0.489478 0
vt 0.549425 0.652 0
vt 0.294458 0.652 0
vt 0.280493 0.979897 0
vt 0.270403 0.753628 0
vt 0.280493 0.753628 0
vt 0.280493 0.99348 0
vt 0.319007 0.681515 0
vt 0.308697 0.681515 0
vt 0.0248922 0.475328 0
vt 0.0349822 0.475328 0
vt 0.269296 0.475328 0
vt 0.278894 0.475328 0
vt 0.523198 0.681535 0
vt 0.534325 0.681535 0
vt 0.0264915 0.739479 0
vt 0.036089 0.739479 0
vt 0.270403 0.739479 0
vt 0.280493 0.739479 0
vt 0.513617 0.921032 0
vt 0.501201 0.921032 0
vt 0.501201 0.694715 0
vt 0.513899 0.694715 0
vt 0.293209 0.660113 0
vt 0.546997 0.660113 0
vt 0.546997 0.672368 0
vt 0.295927 0.672368 0
vt 0.327732 0.695119 0
vt 0.339254 0.695119 0
vt 0.339254 0.921018 0
vt 0.327878 0.921018 0
vt 0.548008 0.957954 0
vt 0.29352 0.957954 0
vt 0.29352 0.945472 0
vt 0.548273 0.945472 0

# 32 vertex normals
vn -0.524608 9.63673e-06 0.851344
vn -0.897331 0.000554655 0.441358
vn 0.525914 0 0.850538
vn 0.901646 -2.74552e-09 0.432475
vn -0.730332 0.683093 8.94123e-06
vn -0.447789 0.418677 0.79006
vn 0.695256 0.650056 0.30667
vn 0.478882 0.87788 0
vn -0.542643 -0.000328163 -0.839963
vn -0.908186 0.000316655 -0.418566
vn 0.766039 -2.3326e-09 -0.642794
vn 0.747554 0 -0.664201
vn -0.702217 -0.637552 0.31689
vn -0.738335 -0.674434 -0.000143246
vn 0.744198 -0.667959 0
vn 0.4509 -0.404708 0.79555
vn 0.914077 0.250487 -0.318935
vn 0.815153 -0.551358 -0.177568
vn -0.912758 -0.250526 -0.322659
vn -0.67549 0.702348 -0.224547
vn -0.730508 0.682904 -1.34558e-05
vn 0.89548 0.445103 0
vn -0.74034 -0.672232 -0.000298567
vn 0.744198 -0.667959 0
vn -0.676301 -0.701191 0.225718
vn -0.698532 0.652899 -0.292876
vn 0.721188 0.337151 -0.605158
vn 0.762688 -0.395143 0.512025
vn -0.920682 0.236037 0.310856
vn -0.465139 -0.417488 -0.780608
vn 0.710376 -0.637602 -0.298043
vn 0.789026 0.585105 0.187324

# Mesh 'pCube1_pCube1' with 64 faces
g pCube1_pCube1
usemtl lambert1
f  1/1/1 2/2/2 3/3/3
f  3/3/3 4/4/4 1/1/1
f  5/5/5 6/6/6 7/7/7
f  7/7/7 8/8/8 5/5/5
f  9/9/9 10/10/10 11/11/11
f  11/11/11 12/12/12 9/9/9
f  13/13/13 14/14/14 15/15/15
f  15/15/15 16/16/16 13/13/13
f  4/17/4 3/18/3 17/19/17
f  17/19/17 18/20/18 4/17/4
f  19/21/19 20/22/20 2/23/2
f  2/23/2 1/24/1 19/21/19
f  21/25/21 5/5/5 8/8/8
f  8/8/8 22/26/22 21/25/21
f  14/14/14 23/27/23 24/28/24
f  24/28/24 15/15/15 14/14/14
f  6/29/6 1/1/1 4/4/4
f  4/4/4 7/30/7 6/29/6
f  5/31/5 19/21/19 1/24/1
f  1/24/1 6/32/6 5/31/5
f  21/33/21 25/34/25 19/21/19
f  19/21/19 5/31/5 21/33/21
f  10/10/10 26/35/26 27/36/27
f  27/36/27 11/11/11 10/10/10
f  22/37/22 8/38/8 18/20/18
f  18/20/18 28/39/28 22/37/22
f  7/40/7 4/17/4 18/20/18
f  18/20/18 8/38/8 7/40/7
f  26/41/26 21/25/21 22/26/22
f  22/26/22 27/42/27 26/41/26
f  26/43/26 10/44/10 25/34/25
f  25/34/25 21/33/21 26/43/26
f  10/44/10 9/45/9 29/46/29
f  29/46/29 25/34/25 10/44/10
f  23/27/23 30/47/30 31/48/31
f  31/48/31 24/28/24 23/27/23
f  11/49/11 28/39/28 32/50/32
f  32/50/32 12/51/12 11/49/11
f  27/52/27 22/37/22 28/39/28
f  28/39/28 11/49/11 27/52/27
f  30/53/30 9/9/9 12/12/12
f  12/12/12 31/54/31 30/53/30
f  9/45/9 30/55/30 23/56/23
f  23/56/23 29/46/29 9/45/9
f  29/46/29 23/56/23 14/57/14
f  14/57/14 20/22/20 29/46/29
f  20/22/20 14/57/14 13/58/13
f  13/58/13 2/23/2 20/22/20
f  2/2/2 13/59/13 16/60/16
f  16/60/16 3/3/3 2/2/2
f  3/18/3 16/61/16 15/62/15
f  15/62/15 17/19/17 3/18/3
f  24/63/24 32/50/32 17/19/17
f  17/19/17 15/62/15 24/63/24
f  31/64/31 12/51/12 32/50/32
f  32/50/32 24/63/24 31/64/31
f  19/65/19 18/66/18 17/67/17
f  17/67/17 20/68/20 19/65/19
f  20/69/20 17/70/17 32/71/32
f  32/71/32 29/72/29 20/69/20
f  29/73/29 32/74/32 28/75/28
f  28/75/28 25/76/25 29/73/29
f  25/77/25 28/78/28 18/79/18
f  18/79/18 19/80/19 25/77/25

